<mxfile host="app.diagrams.net" modified="2022-05-24T23:40:29.007Z" agent="5.0 (Windows)" etag="nncBbQQLKboCMSMP2ksm" version="16.5.6" type="github">
  <diagram id="C5RBs43oDa-KdzZeNtuy" name="Page-1">
    <mxGraphModel dx="1038" dy="652" grid="1" gridSize="10" guides="1" tooltips="1" connect="1" arrows="1" fold="1" page="1" pageScale="1" pageWidth="827" pageHeight="1169" math="0" shadow="0">
      <root>
        <mxCell id="WIyWlLk6GJQsqaUBKTNV-0" />
        <mxCell id="WIyWlLk6GJQsqaUBKTNV-1" parent="WIyWlLk6GJQsqaUBKTNV-0" />
        <mxCell id="l98rYYYhJR6IqbHvbrfw-6" value="" style="edgeStyle=orthogonalEdgeStyle;rounded=0;orthogonalLoop=1;jettySize=auto;html=1;" parent="WIyWlLk6GJQsqaUBKTNV-1" source="l98rYYYhJR6IqbHvbrfw-4" target="l98rYYYhJR6IqbHvbrfw-5" edge="1">
          <mxGeometry relative="1" as="geometry" />
        </mxCell>
        <mxCell id="l98rYYYhJR6IqbHvbrfw-4" value="URL" style="shape=parallelogram;perimeter=parallelogramPerimeter;whiteSpace=wrap;html=1;fixedSize=1;" parent="WIyWlLk6GJQsqaUBKTNV-1" vertex="1">
          <mxGeometry width="120" height="60" as="geometry" />
        </mxCell>
        <mxCell id="znTk9GlT2pWSSCdsm75r-1" style="edgeStyle=orthogonalEdgeStyle;rounded=0;orthogonalLoop=1;jettySize=auto;html=1;entryX=0.5;entryY=0;entryDx=0;entryDy=0;" edge="1" parent="WIyWlLk6GJQsqaUBKTNV-1" source="l98rYYYhJR6IqbHvbrfw-5" target="znTk9GlT2pWSSCdsm75r-0">
          <mxGeometry relative="1" as="geometry" />
        </mxCell>
        <mxCell id="l98rYYYhJR6IqbHvbrfw-5" value="Bootstrap(RootModule)" style="whiteSpace=wrap;html=1;" parent="WIyWlLk6GJQsqaUBKTNV-1" vertex="1">
          <mxGeometry x="205" width="150" height="60" as="geometry" />
        </mxCell>
        <mxCell id="l98rYYYhJR6IqbHvbrfw-13" style="edgeStyle=orthogonalEdgeStyle;rounded=0;orthogonalLoop=1;jettySize=auto;html=1;" parent="WIyWlLk6GJQsqaUBKTNV-1" source="l98rYYYhJR6IqbHvbrfw-7" edge="1">
          <mxGeometry relative="1" as="geometry">
            <mxPoint x="280" y="320" as="targetPoint" />
          </mxGeometry>
        </mxCell>
        <mxCell id="l98rYYYhJR6IqbHvbrfw-7" value="RoutingModule" style="whiteSpace=wrap;html=1;" parent="WIyWlLk6GJQsqaUBKTNV-1" vertex="1">
          <mxGeometry x="205" y="230" width="150" height="60" as="geometry" />
        </mxCell>
        <mxCell id="l98rYYYhJR6IqbHvbrfw-9" value="Поиск модуля с маршрутами" style="text;html=1;strokeColor=none;fillColor=none;align=center;verticalAlign=middle;whiteSpace=wrap;rounded=0;" parent="WIyWlLk6GJQsqaUBKTNV-1" vertex="1">
          <mxGeometry x="295" y="70" width="60" height="30" as="geometry" />
        </mxCell>
        <mxCell id="l98rYYYhJR6IqbHvbrfw-14" value="Поиск модуля/компонента по маршруту" style="text;html=1;strokeColor=none;fillColor=none;align=center;verticalAlign=middle;whiteSpace=wrap;rounded=0;" parent="WIyWlLk6GJQsqaUBKTNV-1" vertex="1">
          <mxGeometry x="285" y="290" width="110" height="50" as="geometry" />
        </mxCell>
        <mxCell id="l98rYYYhJR6IqbHvbrfw-28" value="Запуск работы фреймворка с корневого модуля" style="text;html=1;strokeColor=none;fillColor=none;align=center;verticalAlign=middle;whiteSpace=wrap;rounded=0;" parent="WIyWlLk6GJQsqaUBKTNV-1" vertex="1">
          <mxGeometry x="110" y="30" width="90" height="70" as="geometry" />
        </mxCell>
        <mxCell id="znTk9GlT2pWSSCdsm75r-2" style="edgeStyle=orthogonalEdgeStyle;rounded=0;orthogonalLoop=1;jettySize=auto;html=1;entryX=0.5;entryY=0;entryDx=0;entryDy=0;" edge="1" parent="WIyWlLk6GJQsqaUBKTNV-1" source="znTk9GlT2pWSSCdsm75r-0" target="l98rYYYhJR6IqbHvbrfw-7">
          <mxGeometry relative="1" as="geometry" />
        </mxCell>
        <mxCell id="znTk9GlT2pWSSCdsm75r-20" style="edgeStyle=orthogonalEdgeStyle;rounded=0;orthogonalLoop=1;jettySize=auto;html=1;entryX=1;entryY=0.5;entryDx=0;entryDy=0;" edge="1" parent="WIyWlLk6GJQsqaUBKTNV-1" source="znTk9GlT2pWSSCdsm75r-0" target="znTk9GlT2pWSSCdsm75r-19">
          <mxGeometry relative="1" as="geometry" />
        </mxCell>
        <mxCell id="znTk9GlT2pWSSCdsm75r-0" value="&lt;div&gt;Модуль&lt;/div&gt;&lt;div&gt;найден?&lt;/div&gt;" style="rhombus;whiteSpace=wrap;html=1;" vertex="1" parent="WIyWlLk6GJQsqaUBKTNV-1">
          <mxGeometry x="237.5" y="110" width="85" height="80" as="geometry" />
        </mxCell>
        <mxCell id="znTk9GlT2pWSSCdsm75r-3" style="edgeStyle=orthogonalEdgeStyle;rounded=0;orthogonalLoop=1;jettySize=auto;html=1;entryX=0.5;entryY=0;entryDx=0;entryDy=0;" edge="1" parent="WIyWlLk6GJQsqaUBKTNV-1" source="znTk9GlT2pWSSCdsm75r-4" target="znTk9GlT2pWSSCdsm75r-8">
          <mxGeometry relative="1" as="geometry" />
        </mxCell>
        <mxCell id="znTk9GlT2pWSSCdsm75r-4" value="Target" style="whiteSpace=wrap;html=1;" vertex="1" parent="WIyWlLk6GJQsqaUBKTNV-1">
          <mxGeometry x="205" y="420" width="150" height="60" as="geometry" />
        </mxCell>
        <mxCell id="znTk9GlT2pWSSCdsm75r-5" style="edgeStyle=orthogonalEdgeStyle;rounded=0;orthogonalLoop=1;jettySize=auto;html=1;entryX=1;entryY=0.5;entryDx=0;entryDy=0;" edge="1" parent="WIyWlLk6GJQsqaUBKTNV-1" source="znTk9GlT2pWSSCdsm75r-8" target="znTk9GlT2pWSSCdsm75r-4">
          <mxGeometry relative="1" as="geometry">
            <mxPoint x="395" y="615" as="targetPoint" />
            <Array as="points">
              <mxPoint x="375" y="555" />
              <mxPoint x="375" y="450" />
            </Array>
          </mxGeometry>
        </mxCell>
        <mxCell id="znTk9GlT2pWSSCdsm75r-6" value="" style="edgeStyle=orthogonalEdgeStyle;rounded=0;orthogonalLoop=1;jettySize=auto;html=1;" edge="1" parent="WIyWlLk6GJQsqaUBKTNV-1" source="znTk9GlT2pWSSCdsm75r-8" target="znTk9GlT2pWSSCdsm75r-11">
          <mxGeometry relative="1" as="geometry" />
        </mxCell>
        <mxCell id="znTk9GlT2pWSSCdsm75r-7" value="" style="edgeStyle=orthogonalEdgeStyle;rounded=0;orthogonalLoop=1;jettySize=auto;html=1;" edge="1" parent="WIyWlLk6GJQsqaUBKTNV-1" source="znTk9GlT2pWSSCdsm75r-8">
          <mxGeometry relative="1" as="geometry">
            <mxPoint x="160" y="150" as="targetPoint" />
          </mxGeometry>
        </mxCell>
        <mxCell id="znTk9GlT2pWSSCdsm75r-8" value="&lt;div&gt;Элемент&lt;/div&gt;&lt;div&gt;является &lt;br&gt;&lt;/div&gt;&lt;div&gt;компонентом?&lt;/div&gt;&lt;div&gt;&lt;br&gt;&lt;/div&gt;" style="rhombus;whiteSpace=wrap;html=1;" vertex="1" parent="WIyWlLk6GJQsqaUBKTNV-1">
          <mxGeometry x="225" y="500" width="110" height="110" as="geometry" />
        </mxCell>
        <mxCell id="znTk9GlT2pWSSCdsm75r-9" value="Нет" style="text;html=1;align=center;verticalAlign=middle;resizable=0;points=[];autosize=1;strokeColor=none;fillColor=none;" vertex="1" parent="WIyWlLk6GJQsqaUBKTNV-1">
          <mxGeometry x="335" y="535" width="40" height="20" as="geometry" />
        </mxCell>
        <mxCell id="znTk9GlT2pWSSCdsm75r-10" value="&lt;div&gt;Поиск&lt;/div&gt;&lt;div&gt;модуля/компонента&lt;/div&gt;&lt;div&gt;по маршруту&lt;/div&gt;" style="text;html=1;align=center;verticalAlign=middle;resizable=0;points=[];autosize=1;strokeColor=none;fillColor=none;" vertex="1" parent="WIyWlLk6GJQsqaUBKTNV-1">
          <mxGeometry x="375" y="470" width="120" height="50" as="geometry" />
        </mxCell>
        <mxCell id="znTk9GlT2pWSSCdsm75r-11" value="&lt;div&gt;Запустить&lt;/div&gt;&lt;div&gt;отрисовку найденного компонента&lt;/div&gt;" style="whiteSpace=wrap;html=1;" vertex="1" parent="WIyWlLk6GJQsqaUBKTNV-1">
          <mxGeometry x="220" y="645" width="120" height="60" as="geometry" />
        </mxCell>
        <mxCell id="znTk9GlT2pWSSCdsm75r-12" value="Да" style="text;html=1;align=center;verticalAlign=middle;resizable=0;points=[];autosize=1;strokeColor=none;fillColor=none;" vertex="1" parent="WIyWlLk6GJQsqaUBKTNV-1">
          <mxGeometry x="285" y="610" width="30" height="20" as="geometry" />
        </mxCell>
        <mxCell id="znTk9GlT2pWSSCdsm75r-14" value="Не найдено" style="text;html=1;align=center;verticalAlign=middle;resizable=0;points=[];autosize=1;strokeColor=none;fillColor=none;" vertex="1" parent="WIyWlLk6GJQsqaUBKTNV-1">
          <mxGeometry x="157.5" y="535" width="80" height="20" as="geometry" />
        </mxCell>
        <mxCell id="znTk9GlT2pWSSCdsm75r-17" style="edgeStyle=orthogonalEdgeStyle;rounded=0;orthogonalLoop=1;jettySize=auto;html=1;entryX=0.5;entryY=0;entryDx=0;entryDy=0;" edge="1" parent="WIyWlLk6GJQsqaUBKTNV-1" source="znTk9GlT2pWSSCdsm75r-15" target="znTk9GlT2pWSSCdsm75r-4">
          <mxGeometry relative="1" as="geometry" />
        </mxCell>
        <mxCell id="znTk9GlT2pWSSCdsm75r-21" style="edgeStyle=orthogonalEdgeStyle;rounded=0;orthogonalLoop=1;jettySize=auto;html=1;" edge="1" parent="WIyWlLk6GJQsqaUBKTNV-1" source="znTk9GlT2pWSSCdsm75r-15">
          <mxGeometry relative="1" as="geometry">
            <mxPoint x="160" y="360" as="targetPoint" />
          </mxGeometry>
        </mxCell>
        <mxCell id="znTk9GlT2pWSSCdsm75r-15" value="Элемент&lt;div&gt;найден?&lt;/div&gt;" style="rhombus;whiteSpace=wrap;html=1;" vertex="1" parent="WIyWlLk6GJQsqaUBKTNV-1">
          <mxGeometry x="237.5" y="320" width="85" height="80" as="geometry" />
        </mxCell>
        <mxCell id="znTk9GlT2pWSSCdsm75r-19" value="Редирект на определённую страницу или вывод ошибки в консоль разработчика в браузере" style="whiteSpace=wrap;html=1;" vertex="1" parent="WIyWlLk6GJQsqaUBKTNV-1">
          <mxGeometry y="109" width="140" height="82.5" as="geometry" />
        </mxCell>
        <mxCell id="znTk9GlT2pWSSCdsm75r-22" value="Да" style="text;html=1;align=center;verticalAlign=middle;resizable=0;points=[];autosize=1;strokeColor=none;fillColor=none;" vertex="1" parent="WIyWlLk6GJQsqaUBKTNV-1">
          <mxGeometry x="280" y="400" width="30" height="20" as="geometry" />
        </mxCell>
        <mxCell id="znTk9GlT2pWSSCdsm75r-23" value="Да" style="text;html=1;align=center;verticalAlign=middle;resizable=0;points=[];autosize=1;strokeColor=none;fillColor=none;" vertex="1" parent="WIyWlLk6GJQsqaUBKTNV-1">
          <mxGeometry x="280" y="200" width="30" height="20" as="geometry" />
        </mxCell>
        <mxCell id="znTk9GlT2pWSSCdsm75r-24" value="Нет" style="text;html=1;align=center;verticalAlign=middle;resizable=0;points=[];autosize=1;strokeColor=none;fillColor=none;" vertex="1" parent="WIyWlLk6GJQsqaUBKTNV-1">
          <mxGeometry x="180" y="340" width="40" height="20" as="geometry" />
        </mxCell>
        <mxCell id="znTk9GlT2pWSSCdsm75r-25" value="Нет" style="text;html=1;align=center;verticalAlign=middle;resizable=0;points=[];autosize=1;strokeColor=none;fillColor=none;" vertex="1" parent="WIyWlLk6GJQsqaUBKTNV-1">
          <mxGeometry x="180" y="130" width="40" height="20" as="geometry" />
        </mxCell>
      </root>
    </mxGraphModel>
  </diagram>
</mxfile>
